<svg xmlns="http://www.w3.org/2000/svg" xmlns:xlink="http://www.w3.org/1999/xlink" width="40" zoomAndPan="magnify" viewBox="0 0 30 30.000001" height="40" preserveAspectRatio="xMidYMid meet" version="1.0"><defs><clipPath id="2de189638d"><path d="M 9.953125 14 L 17 14 L 17 20.320312 L 9.953125 20.320312 Z M 9.953125 14 " clip-rule="nonzero"/></clipPath><clipPath id="94a626e462"><path d="M 13 8.707031 L 20 8.707031 L 20 15 L 13 15 Z M 13 8.707031 " clip-rule="nonzero"/></clipPath><clipPath id="fec28aa9dc"><path d="M 16 14 L 20.113281 14 L 20.113281 18 L 16 18 Z M 16 14 " clip-rule="nonzero"/></clipPath><clipPath id="0f113f2643"><path d="M 1.949219 0 L 28.078125 0 L 28.078125 27 L 1.949219 27 Z M 1.949219 0 " clip-rule="nonzero"/></clipPath><clipPath id="84a9d1a80e"><path d="M 2 3 L 28 3 L 28 29.03125 L 2 29.03125 Z M 2 3 " clip-rule="nonzero"/></clipPath></defs><g clip-path="url(#2de189638d)"><path fill="#7258db" d="M 13.671875 14.816406 C 13.933594 14.875 14.179688 14.980469 14.402344 15.117188 L 14.765625 14.757812 C 14.863281 14.660156 15.027344 14.660156 15.125 14.757812 L 15.5625 15.191406 C 15.660156 15.289062 15.660156 15.449219 15.5625 15.546875 L 15.199219 15.90625 C 15.339844 16.128906 15.441406 16.371094 15.503906 16.632812 L 16.015625 16.632812 C 16.15625 16.632812 16.269531 16.746094 16.269531 16.882812 L 16.269531 17.496094 C 16.269531 17.636719 16.15625 17.75 16.015625 17.75 L 15.503906 17.75 C 15.441406 18.011719 15.339844 18.253906 15.199219 18.472656 L 15.5625 18.832031 C 15.660156 18.929688 15.660156 19.089844 15.5625 19.191406 L 15.125 19.625 C 15.027344 19.722656 14.863281 19.722656 14.765625 19.625 L 14.402344 19.265625 C 14.179688 19.402344 13.933594 19.503906 13.671875 19.566406 L 13.671875 20.074219 C 13.671875 20.210938 13.558594 20.324219 13.417969 20.324219 L 12.800781 20.324219 C 12.660156 20.324219 12.546875 20.210938 12.546875 20.074219 L 12.546875 19.566406 C 12.285156 19.503906 12.039062 19.402344 11.816406 19.265625 L 11.453125 19.625 C 11.355469 19.722656 11.195312 19.722656 11.09375 19.625 L 10.65625 19.191406 C 10.558594 19.09375 10.558594 18.929688 10.65625 18.832031 L 11.019531 18.472656 C 10.878906 18.253906 10.777344 18.011719 10.714844 17.75 L 10.203125 17.75 C 10.066406 17.75 9.949219 17.636719 9.949219 17.496094 L 9.949219 16.882812 C 9.949219 16.746094 10.066406 16.632812 10.203125 16.632812 L 10.714844 16.632812 C 10.777344 16.371094 10.878906 16.128906 11.019531 15.90625 L 10.65625 15.546875 C 10.558594 15.449219 10.558594 15.289062 10.65625 15.191406 L 11.09375 14.757812 C 11.195312 14.660156 11.355469 14.660156 11.453125 14.757812 L 11.816406 15.117188 C 12.039062 14.980469 12.285156 14.875 12.546875 14.816406 L 12.546875 14.308594 C 12.546875 14.167969 12.660156 14.054688 12.800781 14.054688 L 13.417969 14.054688 C 13.558594 14.054688 13.671875 14.167969 13.671875 14.308594 Z M 13.109375 15.875 C 13.84375 15.875 14.4375 16.464844 14.4375 17.191406 C 14.4375 17.917969 13.84375 18.507812 13.109375 18.507812 C 12.378906 18.507812 11.785156 17.917969 11.785156 17.191406 C 11.785156 16.464844 12.378906 15.875 13.109375 15.875 Z M 13.109375 15.875 " fill-opacity="1" fill-rule="evenodd"/></g><g clip-path="url(#94a626e462)"><path fill="#f77225" d="M 18.300781 10.277344 C 18.421875 10.46875 18.503906 10.675781 18.554688 10.890625 L 18.988281 10.890625 C 19.105469 10.890625 19.203125 10.984375 19.203125 11.101562 L 19.203125 11.621094 C 19.203125 11.738281 19.105469 11.835938 18.988281 11.835938 L 18.554688 11.835938 C 18.503906 12.050781 18.421875 12.257812 18.300781 12.449219 L 18.605469 12.753906 C 18.691406 12.835938 18.691406 12.972656 18.605469 13.054688 L 18.234375 13.421875 C 18.152344 13.503906 18.015625 13.503906 17.929688 13.421875 L 17.625 13.117188 C 17.433594 13.238281 17.222656 13.320312 17.007812 13.371094 L 17.007812 13.800781 C 17.007812 13.917969 16.910156 14.015625 16.792969 14.015625 L 16.269531 14.015625 C 16.152344 14.015625 16.054688 13.917969 16.054688 13.800781 L 16.054688 13.371094 C 15.839844 13.324219 15.628906 13.238281 15.4375 13.117188 L 15.128906 13.421875 C 15.046875 13.503906 14.910156 13.503906 14.824219 13.421875 L 14.457031 13.054688 C 14.371094 12.972656 14.371094 12.835938 14.457031 12.753906 L 14.761719 12.449219 C 14.640625 12.257812 14.554688 12.050781 14.503906 11.835938 L 14.074219 11.835938 C 13.953125 11.835938 13.859375 11.738281 13.859375 11.621094 L 13.859375 11.101562 C 13.859375 10.984375 13.953125 10.890625 14.074219 10.890625 L 14.503906 10.890625 C 14.554688 10.675781 14.640625 10.46875 14.761719 10.277344 L 14.457031 9.972656 C 14.371094 9.890625 14.371094 9.753906 14.457031 9.671875 L 14.824219 9.304688 C 14.910156 9.21875 15.046875 9.21875 15.128906 9.304688 L 15.4375 9.605469 C 15.628906 9.488281 15.839844 9.402344 16.054688 9.351562 L 16.054688 8.925781 C 16.054688 8.804688 16.152344 8.710938 16.269531 8.710938 L 16.792969 8.710938 C 16.910156 8.710938 17.007812 8.804688 17.007812 8.925781 L 17.007812 9.351562 C 17.222656 9.402344 17.433594 9.488281 17.625 9.605469 L 17.929688 9.304688 C 18.015625 9.21875 18.152344 9.21875 18.234375 9.304688 L 18.605469 9.671875 C 18.691406 9.753906 18.691406 9.890625 18.605469 9.972656 Z M 17.164062 10.734375 C 17.515625 11.082031 17.515625 11.644531 17.164062 11.992188 C 16.8125 12.339844 16.246094 12.339844 15.898438 11.992188 C 15.546875 11.644531 15.546875 11.082031 15.898438 10.734375 C 16.246094 10.386719 16.8125 10.386719 17.164062 10.734375 Z M 17.164062 10.734375 " fill-opacity="1" fill-rule="evenodd"/></g><g clip-path="url(#fec28aa9dc)"><path fill="#7258db" d="M 19.042969 14.597656 C 19.171875 14.664062 19.28125 14.75 19.378906 14.851562 L 19.613281 14.71875 C 19.675781 14.679688 19.761719 14.703125 19.796875 14.765625 L 19.960938 15.050781 C 20 15.113281 19.976562 15.195312 19.914062 15.230469 L 19.675781 15.367188 C 19.71875 15.5 19.738281 15.640625 19.734375 15.78125 L 19.996094 15.851562 C 20.066406 15.871094 20.109375 15.945312 20.089844 16.015625 L 20.003906 16.332031 C 19.984375 16.402344 19.910156 16.445312 19.839844 16.425781 L 19.578125 16.355469 C 19.507812 16.480469 19.421875 16.59375 19.320312 16.6875 L 19.457031 16.921875 C 19.496094 16.984375 19.472656 17.066406 19.40625 17.105469 L 19.121094 17.265625 C 19.058594 17.304688 18.976562 17.28125 18.9375 17.21875 L 18.800781 16.984375 C 18.667969 17.023438 18.527344 17.042969 18.382812 17.039062 L 18.3125 17.300781 C 18.296875 17.371094 18.21875 17.414062 18.148438 17.394531 L 17.832031 17.308594 C 17.757812 17.289062 17.714844 17.214844 17.734375 17.144531 L 17.804688 16.886719 C 17.679688 16.816406 17.566406 16.730469 17.472656 16.628906 L 17.234375 16.765625 C 17.171875 16.800781 17.089844 16.78125 17.050781 16.714844 L 16.886719 16.433594 C 16.851562 16.371094 16.871094 16.285156 16.9375 16.25 L 17.171875 16.117188 C 17.132812 15.984375 17.113281 15.84375 17.117188 15.703125 L 16.855469 15.632812 C 16.78125 15.613281 16.738281 15.539062 16.757812 15.46875 L 16.84375 15.152344 C 16.863281 15.082031 16.9375 15.039062 17.007812 15.058594 L 17.273438 15.125 C 17.339844 15 17.425781 14.890625 17.527344 14.796875 L 17.390625 14.5625 C 17.355469 14.5 17.378906 14.414062 17.441406 14.378906 L 17.726562 14.214844 C 17.792969 14.179688 17.875 14.199219 17.910156 14.265625 L 18.046875 14.5 C 18.179688 14.457031 18.320312 14.4375 18.464844 14.445312 L 18.535156 14.183594 C 18.554688 14.113281 18.628906 14.070312 18.699219 14.089844 L 19.019531 14.171875 C 19.089844 14.191406 19.132812 14.265625 19.113281 14.335938 Z M 18.570312 15.203125 C 18.871094 15.28125 19.050781 15.585938 18.96875 15.886719 C 18.886719 16.183594 18.578125 16.359375 18.277344 16.28125 C 17.980469 16.199219 17.800781 15.894531 17.878906 15.597656 C 17.960938 15.296875 18.269531 15.121094 18.570312 15.203125 Z M 18.570312 15.203125 " fill-opacity="1" fill-rule="evenodd"/></g><g clip-path="url(#0f113f2643)"><path fill="#f77225" d="M 15.011719 26.066406 L 1.949219 13.039062 L 15.011719 0.0117188 L 28.078125 13.039062 Z M 2.84375 13.039062 L 15.011719 25.171875 L 27.179688 13.039062 L 15.011719 0.90625 Z M 2.84375 13.039062 " fill-opacity="1" fill-rule="nonzero"/></g><g clip-path="url(#84a9d1a80e)"><path fill="#7258db" d="M 15.011719 29.019531 L 2.128906 16.171875 L 15.011719 3.324219 L 27.898438 16.171875 Z M 2.664062 16.171875 L 15.011719 28.484375 L 27.359375 16.171875 L 15.011719 3.859375 Z M 2.664062 16.171875 " fill-opacity="1" fill-rule="nonzero"/></g></svg>